<svg xmlns="http://www.w3.org/2000/svg" width="70.877" height="70.877" viewBox="0 0 70.877 70.877">
  <path id="Icon_awesome-whatsapp" data-name="Icon awesome-whatsapp" d="M60.261,12.549A35.133,35.133,0,0,0,4.984,54.933L0,73.127l18.621-4.889A35.015,35.015,0,0,0,35.407,72.51h.016c19.349,0,35.454-15.757,35.454-35.122A35.26,35.26,0,0,0,60.261,12.549ZM35.422,66.593a29.14,29.14,0,0,1-14.871-4.066l-1.06-.633-11.043,2.9,2.943-10.774-.7-1.107a29.249,29.249,0,1,1,54.249-15.52C64.944,53.493,51.512,66.593,35.422,66.593ZM51.433,44.728c-.87-.443-5.189-2.563-6-2.848-.807-.3-1.392-.443-1.978.443s-2.262,2.848-2.784,3.449c-.506.585-1.028.664-1.9.221-5.158-2.579-8.543-4.6-11.945-10.442-.9-1.55.9-1.44,2.579-4.794a1.626,1.626,0,0,0-.079-1.535c-.221-.443-1.978-4.762-2.705-6.518-.712-1.709-1.44-1.471-1.978-1.5-.506-.032-1.092-.032-1.677-.032a3.251,3.251,0,0,0-2.341,1.092,9.861,9.861,0,0,0-3.069,7.325c0,4.319,3.148,8.5,3.575,9.081.443.585,6.186,9.445,15,13.258,5.569,2.4,7.752,2.61,10.537,2.2,1.693-.253,5.189-2.12,5.917-4.177a7.34,7.34,0,0,0,.506-4.177C52.888,45.377,52.3,45.156,51.433,44.728Z" transform="translate(0 -2.25)" fill="#fff"/>
</svg>
