<svg xmlns="http://www.w3.org/2000/svg" width="203.002" height="203" viewBox="0 0 203.002 203">
  <path id="Subtração_6" data-name="Subtração 6" d="M12676.5-6837a100.886,100.886,0,0,1-39.508-7.976,101.174,101.174,0,0,1-32.266-21.752,101.187,101.187,0,0,1-21.752-32.263A100.879,100.879,0,0,1,12575-6938.5a100.921,100.921,0,0,1,7.975-39.51,101.174,101.174,0,0,1,21.752-32.263,101.144,101.144,0,0,1,32.265-21.753A100.862,100.862,0,0,1,12676.5-7040a100.876,100.876,0,0,1,39.51,7.978,101.18,101.18,0,0,1,32.264,21.753,101.193,101.193,0,0,1,21.751,32.263A100.9,100.9,0,0,1,12778-6938.5a100.855,100.855,0,0,1-7.977,39.508,101.2,101.2,0,0,1-21.752,32.263,101.207,101.207,0,0,1-32.265,21.752A100.878,100.878,0,0,1,12676.5-6837Zm2.66-111.775a13.346,13.346,0,0,0-2.547.233,9.473,9.473,0,0,0-1.523.406,23.149,23.149,0,0,0-3.206,1.638l-.032.017a19.278,19.278,0,0,0-3.012,2.009,9.761,9.761,0,0,0-1.111,1.117c-1.873,2.148-3.125,5.107-3.945,9.312q-.519,2.8-.988,5.4l-.133.728c-.725,3.979-1.336,7.33-2.074,11.216-.133.5-.27,1-.406,1.5-2.131,7.831-4.543,16.708.986,23.682a15.2,15.2,0,0,0,10.49,4.555,13.794,13.794,0,0,0,4.169-.658,7.243,7.243,0,0,0,1.279-.609,67.648,67.648,0,0,0,6.038-4.346,127.156,127.156,0,0,1,13.8-9.586l.723-.412a129.3,129.3,0,0,1,15.326-7.237l.018-.007c3.7-1.536,6.615-2.75,7.807-3.777,5.586-5.115,4.627-11.947,3.955-14.646-3.262-8.337-12.152-10.686-20-12.757l-1.5-.4c-2.027-.719-3.937-1.4-6.049-2.158-3.334-1.194-6.781-2.429-10.574-3.749a22.771,22.771,0,0,0-7.488-1.475Zm-39.559,4.048a11.533,11.533,0,0,0-5.759,1.549,11.463,11.463,0,0,0-5.377,7,11.463,11.463,0,0,0,1.156,8.75,11.584,11.584,0,0,0,10,5.773,11.594,11.594,0,0,0,5.751-1.55,11.554,11.554,0,0,0,4.226-15.759,11.577,11.577,0,0,0-9.994-5.767Zm8.748-26.363a11.518,11.518,0,0,0-5.756,1.547,11.451,11.451,0,0,0-5.374,7,11.456,11.456,0,0,0,1.152,8.751,11.578,11.578,0,0,0,10,5.769,11.537,11.537,0,0,0,5.759-1.545,11.546,11.546,0,0,0,4.218-15.754,11.574,11.574,0,0,0-10.047-5.768Zm51.184-8.239a11.54,11.54,0,0,0-5.762,1.55,11.433,11.433,0,0,0-5.37,7,11.459,11.459,0,0,0,1.153,8.753,11.581,11.581,0,0,0,10,5.769,11.524,11.524,0,0,0,5.751-1.545,11.552,11.552,0,0,0,4.226-15.759,11.586,11.586,0,0,0-10.032-5.769Zm-27.209-5.6a11.521,11.521,0,0,0-5.757,1.549,11.545,11.545,0,0,0-4.223,15.753,11.56,11.56,0,0,0,9.981,5.767h.016a11.569,11.569,0,0,0,5.759-1.544,11.466,11.466,0,0,0,5.372-7,11.442,11.442,0,0,0-1.15-8.75,11.574,11.574,0,0,0-10-5.771Z" transform="translate(-12575 7040)" fill="#fff"/>
</svg>
